<svg style="width: 700px;	height: 840px;" width="1049" height="815" viewBox="0 0 1049 815" fill="none" xmlns="http://www.w3.org/2000/svg">
					<path opacity="0.15" fill-rule="evenodd" clip-rule="evenodd" d="M1066.48 780.401L1066.24 780.059L1066.04 779.787C1086.91 722.133 1095.31 658.612 1090.53 591.339C1079.61 437.995 1020.46 345.818 968.742 282.536C967.548 266.048 966.217 249.57 964.75 233.104C955.13 126.156 946.328 94.0204 943.019 82.6603C928.828 33.7404 921.698 9.3145 903.72 1.80935C892.871 -2.72785 870.97 -5.59345 747.783 82.6603C725.073 98.936 702.667 115.632 680.578 132.74L670.002 131.546C611.803 124.928 569.774 120.152 477.87 130.932C474.186 131.273 388.491 139.699 298.566 181.182C271.684 168.901 231.702 150.138 183.703 125.678C111.517 88.9032 94.9372 74.9505 75.2191 82.6944C34.2819 98.694 32.6785 185.856 31.8257 233.07C30.6317 298.775 43.5269 351.447 53.5224 383.515C39.9279 416.388 29.2988 450.41 21.762 485.175C7.94565 549.037 -37.3923 721.724 67.9186 869.883C102.442 918.495 172.65 1002.35 287.854 1050.45C343.392 1073.65 388.832 1079.96 428.132 1085.42C466.647 1090.77 590.618 1104.79 745.634 1058.23C808.848 1039.26 873.221 1019.92 941.348 964.993C1050.38 877.047 1066.55 780.503 1066.48 780.367" fill="white"></path>
				</svg>