<svg width="1320px" height="1089px" viewBox="0 0 1320 837" fill="none" xmlns="http://www.w3.org/2000/svg">
	<g opacity="0.1">
		<path d="M631.536 45.3367L1053.06 851.905H1361.01L631.536 45.3367Z" fill="url(#paint0_linear)"></path>
		<path d="M630.702 43.1051H322.483L1052.82 851.916H1053.09L631.57 44.714L630.702 43.1051Z" fill="url(#paint1_linear)"></path>
		<path d="M1767.78 1.12671C760.503 87.6753 112.133 571.334 112.133 571.334L0 851.043C683.385 120.751 1661.15 11.0717 1767.78 1.12671Z" fill="url(#paint2_linear)"></path>
		<path d="M1777.35 0.301147C1774.16 0.554573 1770.99 0.846394 1767.81 1.11518C1661.1 11.0602 683.409 120.759 0.0778809 851.031H116.331L593.124 621.209C1077.42 159.552 1777.35 0.304988 1777.35 0.304988V0.301147Z" fill="url(#paint3_linear)"></path>
		<path d="M1767.81 1.07402C1661.1 11.019 683.409 120.718 0.0778809 850.99H391.958C452.02 767.183 520.114 690.744 593.124 621.148C1077.42 159.496 1777.35 0.244629 1777.35 0.244629C1774.16 0.513413 1770.99 0.805237 1767.81 1.07402Z" fill="url(#paint4_linear)"></path>
	</g>
	<defs>
		<linearGradient id="paint0_linear" x1="631.559" y1="448.63" x2="1364.95" y2="448.63" gradientUnits="userSpaceOnUse">
			<stop stop-color="white"></stop>
			<stop offset="1" stop-color="white" stop-opacity="0.61"></stop>
		</linearGradient>
		<linearGradient id="paint1_linear" x1="322.505" y1="447.52" x2="1057.04" y2="447.52" gradientUnits="userSpaceOnUse">
			<stop stop-color="white"></stop>
			<stop offset="1" stop-color="white" stop-opacity="0.61"></stop>
		</linearGradient>
		<linearGradient id="paint2_linear" x1="0.0537569" y1="426.094" x2="1777.33" y2="426.094" gradientUnits="userSpaceOnUse">
			<stop stop-color="white"></stop>
			<stop offset="1" stop-color="white" stop-opacity="0.61"></stop>
		</linearGradient>
		<linearGradient id="paint3_linear" x1="0.131926" y1="425.676" x2="1786.95" y2="425.676" gradientUnits="userSpaceOnUse">
			<stop stop-color="white"></stop>
			<stop offset="1" stop-color="white" stop-opacity="0.61"></stop>
		</linearGradient>
		<linearGradient id="paint4_linear" x1="0.131926" y1="425.627" x2="1786.95" y2="425.627" gradientUnits="userSpaceOnUse">
			<stop stop-color="white"></stop>
			<stop offset="1" stop-color="white" stop-opacity="0.61"></stop>
		</linearGradient>
	</defs>
</svg>