<svg style="width: 700px;	height: 1089px;" width="1036" height="847" viewBox="0 0 1036 847" fill="none" xmlns="http://www.w3.org/2000/svg">
					<path opacity="0.1" d="M385.476 1275C263.573 1275 168.852 1243.64 101.311 1180.92C33.7703 1116.55 0 1016.7 0 881.359C0 767.476 22.239 642.039 66.7169 505.049C111.195 368.058 183.678 250.049 284.165 151.019C384.652 50.3398 512.32 0 667.169 0C848.376 0 938.979 79.2233 938.979 237.67C938.979 330.097 912.622 415.097 859.907 492.67C807.193 570.243 737.181 632.961 649.872 680.825C562.564 727.039 469.49 753.447 370.65 760.049C367.355 809.563 365.708 842.573 365.708 859.078C365.708 939.951 379.71 995.243 407.715 1024.95C435.719 1053.01 481.021 1067.04 543.62 1067.04C632.575 1067.04 708.353 1046.41 770.951 1005.15C835.197 963.883 905.209 901.165 980.986 816.99H1065C882.146 1122.33 655.638 1275 385.476 1275ZM390.418 641.214C451.369 637.913 509.026 616.456 563.388 576.845C619.397 537.233 663.875 486.893 696.821 425.825C731.415 364.757 748.712 300.388 748.712 232.718C748.712 165.048 728.121 131.214 686.937 131.214C627.633 131.214 569.153 183.204 511.497 287.184C455.487 391.165 415.128 509.175 390.418 641.214Z" fill="white"></path>
				</svg>