<svg width="1056" height="772" viewBox="0 0 1056 772" fill="none" xmlns="http://www.w3.org/2000/svg">
					<path opacity="0.1" d="M416.535 802.761C427.939 837.646 441.953 861.496 459.015 874.329C478.229 889.547 502.17 897.146 530.946 897.146C563.609 897.146 589.812 888.087 609.428 869.737C617.238 862.119 623.807 852.633 629.044 841.242C634.172 830.082 641.58 809.418 651.252 779.285L777.341 369.939L846.043 779.695C852.211 817.694 861.243 844.463 873.451 860.179C892.136 884.812 919.033 897.129 953.849 897.129C978.191 897.129 1000.23 889.529 1019.87 874.311C1043.81 854.644 1055.78 829.228 1055.78 797.724C1055.78 786.992 1053.74 769.834 1049.3 746.18L934.89 105.348C930.164 77.2977 915.675 53.3054 891.735 33.2288C865.13 12.1199 834.602 1.49423 800.187 1.49423C770.079 1.49423 743.584 9.7527 720.574 26.3052C694.37 44.9224 675.813 71.2819 664.937 105.366L527.023 534.504L376.719 86.1969C368.416 61.1723 353.891 41.1135 332.925 26.2874C309.385 9.36114 281.449 0.835693 249.242 0.835693C210.977 0.835693 178.46 12.1199 151.855 34.6527C131.4 51.9706 118.079 78.7216 111.948 114.906L6.11268 747.96C2.20772 770.511 0.21875 786.885 0.21875 797.119C0.21875 829.904 12.4263 855.605 36.7867 875.005C55.8735 889.724 77.515 897.164 101.437 897.164C136.783 897.164 163.388 884.848 181.27 860.215C192.985 844.214 201.853 817.178 208.039 779.73L274.697 369.975L416.535 802.761Z" fill="white"></path>
				</svg>